<?xml version="1.0" standalone="no"?><svg xmlns="http://www.w3.org/2000/svg" viewBox="0 0 1440 320"><path fill="#ff5500" fill-opacity="1" d="M0,192L40,208C80,224,160,256,240,245.3C320,235,400,181,480,186.7C560,192,640,256,720,282.7C800,309,880,299,960,250.7C1040,203,1120,117,1200,101.3C1280,85,1360,139,1400,165.3L1440,192L1440,320L1400,320C1360,320,1280,320,1200,320C1120,320,1040,320,960,320C880,320,800,320,720,320C640,320,560,320,480,320C400,320,320,320,240,320C160,320,80,320,40,320L0,320Z"></path></svg>